<svg xmlns="http://www.w3.org/2000/svg" xmlns:xlink="http://www.w3.org/1999/xlink" fill="none" version="1.1" width="20.017454147338867" height="19.30254364013672" viewBox="0 0 20.017454147338867 19.30254364013672"><g><path d="M17.7083,15.0131L2.30916,15.0131C1.0788,15.0131,0,14.058,0,12.9656L0,2.0475C0,0.955118,1.07808,0,2.30916,0L17.7083,0C18.9387,0,20.0175,0.955118,20.0175,2.0475L20.0175,12.9656C20.0175,14.058,18.9394,15.0131,17.7083,15.0131ZM7.90832,12.4287C8.21573,12.4287,8.67757,12.1206,8.67757,11.6587L8.67757,7.03899C8.67757,6.57716,8.37015,6.26904,7.90832,6.26904C7.44578,6.26904,7.13837,6.57716,7.13837,7.03899L7.13837,11.6587C7.13837,12.1206,7.44578,12.4287,7.90832,12.4287ZM11.2956,12.4287C11.7574,12.4287,12.0655,12.1206,12.0655,11.6587L12.0655,9.34887C12.0655,8.88703,11.7581,8.57891,11.2956,8.57891C10.8337,8.57891,10.5256,8.88632,10.5256,9.34887L10.5256,11.658C10.5256,12.1206,10.833,12.4287,11.2956,12.4287ZM14.6828,12.4287C15.1453,12.4287,15.4528,12.1206,15.4528,11.6587L15.4528,10.8881C15.4528,10.4262,15.1453,10.1181,14.6828,10.1181C14.221,10.1181,13.9136,10.4255,13.9136,10.8881L13.9136,11.658C13.9136,12.1199,14.221,12.428,14.6828,12.428L14.6828,12.4287ZM4.52037,12.4287C4.82778,12.4287,5.29033,12.1206,5.29033,11.6587L5.29033,4.72912C5.29033,4.26729,4.98292,3.95917,4.52037,3.95917C4.05854,3.95917,3.75041,4.26729,3.75041,4.72912L3.75041,11.6587C3.75041,12.1206,4.05782,12.4287,4.52037,12.4287ZM5.00436,16.4429L15.0131,16.4429C15.8033,16.4421,16.4443,17.0825,16.4443,17.8727C16.4443,18.6629,15.8033,19.3033,15.0131,19.3025L5.00436,19.3025C4.21415,19.3033,3.57315,18.6629,3.57315,17.8727C3.57315,17.0825,4.21415,16.4421,5.00436,16.4429Z" fill="#00B7B6" fill-opacity="1"/></g></svg>